<svg xmlns="http://www.w3.org/2000/svg" width="1200" height="630" viewBox="0 0 1200 630" fill="none">
  <defs>
    <linearGradient id="bg" x1="140" y1="70" x2="1050" y2="560" gradientUnits="userSpaceOnUse">
      <stop stop-color="#F8F7F4"/>
      <stop offset="1" stop-color="#EAE6DF"/>
    </linearGradient>
  </defs>
  <rect width="1200" height="630" rx="32" fill="url(#bg)"/>
  <circle cx="600" cy="228" r="112" fill="#1A365D" fill-opacity="0.08"/>
  <rect x="490" y="138" width="158" height="186" rx="18" fill="#1A365D"/>
  <rect x="516" y="164" width="106" height="28" rx="10" fill="#F8F7F4"/>
  <circle cx="534" cy="226" r="16" fill="#F8F7F4"/>
  <circle cx="570" cy="226" r="16" fill="#F8F7F4"/>
  <circle cx="606" cy="226" r="16" fill="#F8F7F4"/>
  <circle cx="534" cy="262" r="16" fill="#F8F7F4"/>
  <circle cx="570" cy="262" r="16" fill="#F8F7F4"/>
  <circle cx="606" cy="262" r="16" fill="#F8F7F4"/>
  <path d="M712 172L774 148L836 172L806 206H742L712 172Z" fill="#2C5282"/>
  <rect x="734" y="206" width="80" height="34" rx="17" fill="#2C5282"/>
  <rect x="726" y="246" width="96" height="34" rx="17" fill="#1A365D" fill-opacity="0.84"/>
  <rect x="744" y="286" width="60" height="34" rx="17" fill="#2C5282" fill-opacity="0.74"/>
  <path d="M684 294L736 242" stroke="#1A365D" stroke-width="18" stroke-linecap="round"/>
  <circle cx="674" cy="304" r="22" fill="#1A365D"/>
  <circle cx="674" cy="304" r="10" fill="#F8F7F4"/>
  <text x="600" y="380" text-anchor="middle" fill="#1A365D" font-family="Arial, sans-serif" font-size="36" font-weight="700">
    Первоначальный взнос по военной ипотеке
  </text>
  <text x="600" y="428" text-anchor="middle" fill="#2C5282" font-family="Arial, sans-serif" font-size="22">
    Временная обложка для статьи журнала
  </text>
  <text x="600" y="560" text-anchor="middle" fill="#1A365D" fill-opacity="0.72" font-family="Arial, sans-serif" font-size="20" font-weight="700">
    Военный навигатор
  </text>
</svg>
